# Wavefront OBJ exported by MilkShape 3D

mtllib Model.mtl

v -6.750000 7.250000 7.000000
v -6.750000 -6.750000 7.000000
v 7.000000 7.250000 7.000000
v 7.000000 -6.750000 7.000000
v 37.000000 7.250000 7.000000
v 37.000000 -6.750001 7.000000
v 37.000000 7.250000 -7.000000
v 37.000000 -6.750000 -7.000000
v 7.000000 7.250000 -7.000000
v 7.000000 -6.750000 -7.000000
v -6.750000 7.250000 -7.000000
v -6.750000 -6.750000 -7.000000
v -36.750000 7.250001 -7.000000
v -36.750000 -6.750001 -7.000000
v -36.750000 7.250001 7.000000
v -36.750000 -6.750001 7.000000
v -6.750000 27.250002 -7.000000
v -6.750000 27.250002 7.000000
v 7.000000 27.250002 -7.000000
v 7.000000 27.250002 7.000000
v -6.750000 -56.750000 7.000000
v -6.750000 -56.750000 -7.000000
v 7.000000 -56.750000 7.000000
v 7.000000 -56.750000 -7.000000
v -21.750002 7.250001 -7.000000
v -21.750002 -6.750001 -7.000000
v -21.750002 7.250001 7.000000
v -21.750002 -6.750001 7.000000
v 22.000000 7.250000 7.000000
v 22.000002 -6.750000 7.000000
v 22.000000 7.250000 -7.000000
v 22.000000 -6.750000 -7.000000
v 32.000000 7.250000 7.000000
v 32.000000 -6.750001 7.000000
v 32.000000 7.250000 -7.000000
v 32.000000 -6.750001 -7.000000
v -31.750000 7.250001 -7.000000
v -31.750000 -6.750001 -7.000000
v -31.750000 7.250001 7.000000
v -31.750000 -6.750001 7.000000
# 40 vertices

vt 0.406780 0.000000
vt 0.593220 0.000000
vt 1.000000 0.000000
vt 1.000000 1.000000
vt 0.593220 1.000000
vt 0.406780 1.000000
vt 0.000000 1.000000
vt 0.000000 0.000000
vt 0.203390 1.000000
vt 0.203390 0.000000
vt 0.796610 0.000000
vt 0.796610 1.000000
vt 0.932203 0.000000
vt 0.932203 1.000000
vt 0.067797 1.000000
vt 0.067797 0.000000
# 16 texture coordinates

vn -0.436436 0.218218 0.872872
vn -0.182574 -0.365148 0.912871
vn 0.182574 0.365148 0.912871
vn 0.436436 -0.218218 0.872872
vn 0.408248 0.408248 0.816497
vn 0.666667 -0.666667 0.333333
vn 0.666667 0.666667 -0.333333
vn 0.408248 -0.408248 -0.816497
vn 0.436436 0.218218 -0.872872
vn 0.182574 -0.365148 -0.912871
vn -0.182574 0.365148 -0.912871
vn -0.436436 -0.218218 -0.872872
vn -0.408248 0.408248 -0.816497
vn -0.666667 -0.666667 -0.333333
vn -0.666667 0.666667 0.333333
vn -0.408248 -0.408248 0.816497
vn -0.816497 0.408248 -0.408248
vn -0.333333 0.666667 0.666667
vn 0.333333 0.666667 -0.666667
vn 0.816497 0.408248 0.408248
vn -0.816497 -0.408248 0.408248
vn -0.333333 -0.666667 -0.666667
vn 0.333333 -0.666667 0.666667
vn 0.816497 -0.408248 -0.408248
vn 0.000000 0.707107 -0.707107
vn 0.000000 -0.707107 -0.707107
vn 0.000000 0.707107 0.707107
vn 0.000000 -0.707107 0.707107
# 28 normals

g Box01
usemtl Material01
s 1
f 1/1/1 2/1/2 3/2/3
f 2/1/2 4/2/4 3/2/3
f 5/3/5 6/3/6 7/4/7
f 6/3/6 8/4/8 7/4/7
f 9/5/9 10/5/10 11/6/11
f 10/5/10 12/6/12 11/6/11
f 13/7/13 14/7/14 15/8/15
f 14/7/14 16/8/16 15/8/15
f 17/6/17 18/1/18 19/5/19
f 18/1/18 20/2/20 19/5/19
f 21/1/21 22/6/22 23/2/23
f 22/6/22 24/5/24 23/2/23
f 17/6/17 11/6/11 1/1/1
f 17/6/17 1/1/1 18/1/18
f 19/5/19 9/5/9 11/6/11
f 19/5/19 11/6/11 17/6/17
f 18/1/18 1/1/1 3/2/3
f 18/1/18 3/2/3 20/2/20
f 20/2/20 3/2/3 9/5/9
f 20/2/20 9/5/9 19/5/19
f 25/9/25 11/6/11 12/6/12
f 25/9/25 12/6/12 26/9/26
f 27/10/27 1/1/1 11/6/11
f 27/10/27 11/6/11 25/9/25
f 26/9/26 12/6/12 2/1/2
f 26/9/26 2/1/2 28/10/28
f 28/10/28 2/1/2 1/1/1
f 28/10/28 1/1/1 27/10/27
f 29/11/27 3/2/3 4/2/4
f 29/11/27 4/2/4 30/11/28
f 31/12/25 9/5/9 3/2/3
f 31/12/25 3/2/3 29/11/27
f 30/11/28 4/2/4 10/5/10
f 30/11/28 10/5/10 32/12/26
f 32/12/26 10/5/10 9/5/9
f 32/12/26 9/5/9 31/12/25
f 33/13/27 29/11/27 30/11/28
f 33/13/27 30/11/28 34/13/28
f 35/14/25 31/12/25 29/11/27
f 35/14/25 29/11/27 33/13/27
f 34/13/28 30/11/28 32/12/26
f 34/13/28 32/12/26 36/14/26
f 36/14/26 32/12/26 31/12/25
f 36/14/26 31/12/25 35/14/25
f 5/3/5 33/13/27 34/13/28
f 5/3/5 34/13/28 6/3/6
f 7/4/7 35/14/25 33/13/27
f 7/4/7 33/13/27 5/3/5
f 6/3/6 34/13/28 36/14/26
f 6/3/6 36/14/26 8/4/8
f 8/4/8 36/14/26 35/14/25
f 8/4/8 35/14/25 7/4/7
f 37/15/25 25/9/25 26/9/26
f 37/15/25 26/9/26 38/15/26
f 39/16/27 27/10/27 25/9/25
f 39/16/27 25/9/25 37/15/25
f 38/15/26 26/9/26 28/10/28
f 38/15/26 28/10/28 40/16/28
f 40/16/28 28/10/28 27/10/27
f 40/16/28 27/10/27 39/16/27
f 13/7/13 37/15/25 38/15/26
f 13/7/13 38/15/26 14/7/14
f 15/8/15 39/16/27 37/15/25
f 15/8/15 37/15/25 13/7/13
f 14/7/14 38/15/26 40/16/28
f 14/7/14 40/16/28 16/8/16
f 16/8/16 40/16/28 39/16/27
f 16/8/16 39/16/27 15/8/15
f 21/1/21 2/1/2 12/6/12
f 21/1/21 12/6/12 22/6/22
f 23/2/23 4/2/4 2/1/2
f 23/2/23 2/1/2 21/1/21
f 22/6/22 12/6/12 10/5/10
f 22/6/22 10/5/10 24/5/24
f 24/5/24 10/5/10 4/2/4
f 24/5/24 4/2/4 23/2/23
# 76 triangles in group

# 76 triangles total

